<?xml version="1.0" encoding="iso-8859-1"?>
<!-- Generator: Adobe Illustrator 18.0.0, SVG Export Plug-In . SVG Version: 6.00 Build 0)  -->
<!DOCTYPE svg PUBLIC "-//W3C//DTD SVG 1.1//EN" "http://www.w3.org/Graphics/SVG/1.1/DTD/svg11.dtd">
<svg version="1.1" id="Capa_1" xmlns="http://www.w3.org/2000/svg" xmlns:xlink="http://www.w3.org/1999/xlink" x="0px" y="0px"
	 viewBox="0 0 297 297" style="enable-background:new 0 0 297 297;" xml:space="preserve">
<path d="M251.708,68.844h-21.372c1.948-6.92-1.849-14.213-8.743-16.512L66.779,0.697c-7.098-2.361-14.777,1.467-17.145,8.57
	c-2.368,7.098,1.466,14.773,8.568,17.141l101.702,33.92H45.29c-4.001,0-7.799,1.766-10.373,4.826
	c-2.575,3.061-3.665,7.104-2.979,11.045l34.404,197.838c1.128,6.49,6.762,11.23,13.352,11.23h90.416
	c7.899,7.277,18.434,11.732,29.994,11.732c24.432,0,44.31-19.883,44.31-44.32c0-19.275-12.371-35.709-29.581-41.797l13.523-114.938
	h23.354c7.486,0,13.555-6.066,13.555-13.553C265.263,74.912,259.195,68.844,251.708,68.844z M61.404,87.428h140.663l-14.44,122.731
	c-18.374,5.406-31.829,22.416-31.829,42.521c0,1.859,0.127,3.688,0.35,5.488H91.092L61.404,87.428z M200.104,269.897
	c-9.486,0-17.201-7.723-17.201-17.217c0-9.498,7.715-17.223,17.201-17.223s17.202,7.725,17.202,17.223
	C217.306,262.174,209.59,269.897,200.104,269.897z"/>
<g>
</g>
<g>
</g>
<g>
</g>
<g>
</g>
<g>
</g>
<g>
</g>
<g>
</g>
<g>
</g>
<g>
</g>
<g>
</g>
<g>
</g>
<g>
</g>
<g>
</g>
<g>
</g>
<g>
</g>
</svg>
